HIERARCHY
ROOT joint_Root
{
	OFFSET 0.0 0.0 0.0
	CHANNELS 6 Xposition Yposition Zposition Zrotation Xrotation Yrotation 
	JOINT Hips
	{
		OFFSET 4.5925 91.4895 -427.239
		CHANNELS 6 Xposition Yposition Zposition Zrotation Xrotation Yrotation 
		JOINT Spine
		{
			OFFSET 15.7357 0.0 0.0
			CHANNELS 6 Xposition Yposition Zposition Zrotation Xrotation Yrotation 
			JOINT Chest
			{
				OFFSET 8.98455 -0.406207 0.0
				CHANNELS 6 Xposition Yposition Zposition Zrotation Xrotation Yrotation 
				JOINT Neck
				{
					OFFSET 16.3773 0.0 0.0
					CHANNELS 6 Xposition Yposition Zposition Zrotation Xrotation Yrotation 
					JOINT Head
					{
						OFFSET 6.45672 0.0 0.0
						CHANNELS 6 Xposition Yposition Zposition Zrotation Xrotation Yrotation 
						End Site
						{
							OFFSET 0.0 0.0 0.0
						}
					}
				}
				JOINT Shoulder_L
				{
					OFFSET 12.9942 -0.242716 4.98039
					CHANNELS 6 Xposition Yposition Zposition Zrotation Xrotation Yrotation 
					JOINT UpperArm_L
					{
						OFFSET 5.34809 0.0 0.0
						CHANNELS 6 Xposition Yposition Zposition Zrotation Xrotation Yrotation 
						JOINT LowerArm_L
						{
							OFFSET 24.3286 1.87007e-05 0.0
							CHANNELS 6 Xposition Yposition Zposition Zrotation Xrotation Yrotation 
							JOINT Hand_L
							{
								OFFSET 22.2916 0.0 0.0
								CHANNELS 6 Xposition Yposition Zposition Zrotation Xrotation Yrotation 
								End Site
								{
									OFFSET 0.0 0.0 0.0
								}
							}
						}
					}
				}
				JOINT Shoulder_R
				{
					OFFSET 12.9945 -0.242716 -4.98039
					CHANNELS 6 Xposition Yposition Zposition Zrotation Xrotation Yrotation 
					JOINT UpperArm_R
					{
						OFFSET -5.34813 0.0 0.0
						CHANNELS 6 Xposition Yposition Zposition Zrotation Xrotation Yrotation 
						JOINT LowerArm_R
						{
							OFFSET -24.3289 0.000322201 0.0
							CHANNELS 6 Xposition Yposition Zposition Zrotation Xrotation Yrotation 
							JOINT Hand_R
							{
								OFFSET -22.2915 -0.000108084 0.0
								CHANNELS 6 Xposition Yposition Zposition Zrotation Xrotation Yrotation 
								End Site
								{
									OFFSET 0.0 0.0 0.0
								}
							}
						}
					}
				}
			}
		}
		JOINT UpperLeg_L
		{
			OFFSET -2.19248 -6.46944 0.0
			CHANNELS 6 Xposition Yposition Zposition Zrotation Xrotation Yrotation 
			JOINT LowerLeg_L
			{
				OFFSET 39.0811 0.0 -1.23785e-05
				CHANNELS 6 Xposition Yposition Zposition Zrotation Xrotation Yrotation 
				JOINT Foot_L
				{
					OFFSET 40.9854 0.0 -1.26872e-05
					CHANNELS 6 Xposition Yposition Zposition Zrotation Xrotation Yrotation 
					JOINT Toes_L
					{
						OFFSET 11.7543 0.0 0.0
						CHANNELS 6 Xposition Yposition Zposition Zrotation Xrotation Yrotation 
						End Site
						{
							OFFSET 0.0 0.0 0.0
						}
					}
				}
			}
		}
		JOINT UpperLeg_R
		{
			OFFSET -2.19251 6.46944 0.0
			CHANNELS 6 Xposition Yposition Zposition Zrotation Xrotation Yrotation 
			JOINT LowerLeg_R
			{
				OFFSET -39.0811 -0.00228153 -0.0401928
				CHANNELS 6 Xposition Yposition Zposition Zrotation Xrotation Yrotation 
				JOINT Foot_R
				{
					OFFSET -40.9854 0.0 0.0
					CHANNELS 6 Xposition Yposition Zposition Zrotation Xrotation Yrotation 
					JOINT Toes_R
					{
						OFFSET -11.7543 0.0 0.0
						CHANNELS 6 Xposition Yposition Zposition Zrotation Xrotation Yrotation 
						End Site
						{
							OFFSET 0.0 0.0 0.0
						}
					}
				}
			}
		}
	}
}
MOTION
Frames:	7
Frame Time:	0.0333333
0.000000 0.000000 0.000000 0.000000 0.000000 -0.000000 -3.219530 91.700200 -1.988960 89.396200 10.447500 4.307570 15.735700 0.000005 -0.000001 96.418700 85.662600 -100.984000 8.984550 -0.406207 -0.000000 0.920498 1.241540 -9.133000 16.377300 -0.000001 -0.000001 7.785700 -5.983980 6.055350 6.456720 -0.000001 -0.000000 -1.280540 -4.230300 -0.573310 12.994200 -0.242716 4.980390 -91.486900 3.607590 -67.582600 5.348090 -0.000007 -0.000001 -62.304400 13.224900 -7.672460 24.328600 0.000019 0.000005 6.430690 17.602100 -20.441300 22.291600 -0.000001 0.000005 13.478600 5.121450 4.617530 12.994500 -0.242716 -4.980390 94.280400 -10.635700 -67.926000 -5.348130 -0.000001 -0.000004 -48.747400 -66.954100 -93.043000 -24.328900 0.000322 -0.000009 -2.263860 -2.660170 -40.409300 -22.291500 -0.000108 -0.000004 21.884000 5.576980 -10.051200 -2.192480 -6.469440 -0.000000 -174.721000 -5.565970 -7.882950 39.081100 -0.000007 -0.000012 -0.132092 0.264753 26.516000 40.985400 -0.000006 -0.000013 -0.626297 11.079000 -64.817600 11.754300 -0.000000 0.000003 -0.000091 -0.000945 -16.613900 -2.192510 6.469440 -0.000001 178.587000 25.054000 177.104000 -39.081100 -0.002282 -0.040193 -0.026853 0.063620 25.367000 -40.985400 0.000008 0.000006 5.910640 7.044560 -68.896900 -11.754300 -0.000006 -0.000006 -0.004883 -0.060333 -19.027800
0.000000 0.000000 0.000000 0.000000 0.000000 -0.000000 -3.139760 91.709900 -2.041570 89.399000 10.226500 4.265080 15.735700 0.000005 -0.000001 96.771200 85.673800 -101.249000 8.984550 -0.406207 -0.000000 0.892365 1.287810 -8.958410 16.377300 -0.000001 -0.000001 7.755580 -5.952940 5.974100 6.456720 -0.000001 -0.000000 -1.360500 -4.225490 -0.638192 12.994200 -0.242716 4.980390 -91.516700 3.673470 -67.547200 5.348090 -0.000007 -0.000001 -62.058800 13.572000 -8.193790 24.328600 0.000019 0.000005 6.694360 17.360200 -21.473200 22.291600 -0.000001 0.000005 13.352300 5.127230 4.482350 12.994500 -0.242716 -4.980390 94.269300 -10.568200 -67.852200 -5.348130 -0.000001 -0.000004 -48.654400 -67.042800 -93.299500 -24.328900 0.000322 -0.000009 -2.354230 -2.752900 -40.549200 -22.291500 -0.000108 -0.000004 21.691600 5.576590 -10.030500 -2.192480 -6.469440 -0.000000 -174.777000 -5.723150 -7.903390 39.081100 -0.000007 -0.000012 -0.132288 0.265421 26.492100 40.985400 -0.000006 -0.000013 -0.583864 11.007200 -64.802900 11.754300 -0.000000 0.000003 -0.000090 -0.000945 -16.613900 -2.192510 6.469440 -0.000001 178.580000 24.819900 176.999000 -39.081100 -0.002282 -0.040193 -0.026009 0.061837 25.368100 -40.985400 0.000008 0.000006 5.889940 7.056610 -68.833000 -11.754300 -0.000006 -0.000006 -0.005054 -0.061989 -19.095300
0.000000 0.000000 0.000000 0.000000 0.000000 -0.000000 -3.049270 91.727900 -2.083550 89.372700 10.007800 4.192570 15.735700 0.000005 -0.000001 96.754900 85.695000 -101.119000 8.984550 -0.406207 -0.000000 0.848036 1.275310 -8.730780 16.377300 -0.000001 -0.000001 7.730150 -6.015690 6.006410 6.456720 -0.000001 -0.000000 -1.484090 -4.231040 -0.814425 12.994200 -0.242716 4.980390 -91.581200 3.828260 -67.538000 5.348090 -0.000007 -0.000001 -61.773300 13.868300 -8.625530 24.328600 0.000019 0.000005 6.860570 17.026100 -22.337800 22.291600 -0.000001 0.000005 13.532300 5.130850 4.397490 12.994500 -0.242716 -4.980390 94.269300 -10.506700 -67.736600 -5.348130 -0.000001 -0.000004 -49.015300 -66.930700 -93.632800 -24.328900 0.000322 -0.000009 -2.576340 -2.943080 -41.216800 -22.291500 -0.000108 -0.000004 21.530700 5.573440 -9.865910 -2.192480 -6.469440 -0.000000 -174.827000 -5.821750 -7.946700 39.081100 -0.000007 -0.000012 -0.130255 0.261889 26.444400 40.985400 -0.000006 -0.000013 -0.547089 10.863100 -64.778700 11.754300 -0.000000 0.000003 -0.000094 -0.000974 -16.615000 -2.192510 6.469440 -0.000001 178.598000 24.663700 176.907000 -39.081100 -0.002282 -0.040193 -0.025696 0.061403 25.286300 -40.985400 0.000008 0.000006 5.830040 7.136930 -68.727700 -11.754300 -0.000006 -0.000006 -0.004978 -0.061248 -19.065100
0.000000 0.000000 0.000000 0.000000 0.000000 -0.000000 -2.928260 91.736400 -2.105780 89.372900 9.737170 4.180520 15.735700 0.000005 -0.000001 96.302000 85.697600 -100.551000 8.984550 -0.406207 -0.000000 0.845695 1.200350 -8.501440 16.377300 -0.000001 -0.000001 7.673300 -6.039400 5.976830 6.456720 -0.000001 -0.000000 -1.576500 -4.223000 -0.881909 12.994200 -0.242716 4.980390 -91.635200 3.959250 -67.537800 5.348090 -0.000007 -0.000001 -61.567400 14.168500 -8.978140 24.328600 0.000019 0.000005 6.953950 16.786800 -22.894800 22.291600 -0.000001 0.000005 13.769000 5.133610 4.332770 12.994500 -0.242716 -4.980390 94.205700 -10.345900 -67.732400 -5.348130 -0.000001 -0.000004 -49.209800 -66.608600 -93.353000 -24.328900 0.000322 -0.000009 -3.255650 -3.537790 -42.657600 -22.291500 -0.000108 -0.000004 21.086500 5.567360 -9.551970 -2.192480 -6.469440 -0.000000 -174.908000 -5.929720 -7.915180 39.081100 -0.000007 -0.000012 -0.130534 0.262517 26.438500 40.985400 -0.000006 -0.000013 -0.496019 10.683000 -64.804700 11.754300 -0.000000 0.000003 -0.000093 -0.000970 -16.614800 -2.192510 6.469440 -0.000001 178.498000 24.464800 176.892000 -39.081100 -0.002282 -0.040193 -0.035129 0.081532 25.242900 -40.985400 0.000008 0.000006 5.527430 7.312890 -68.615500 -11.754300 -0.000006 -0.000006 -0.004890 -0.060396 -19.030400
0.000000 0.000000 0.000000 0.000000 0.000000 -0.000000 -2.783910 91.753800 -2.147440 89.377500 9.377070 4.131450 15.735700 0.000005 -0.000001 95.880800 85.707100 -100.009000 8.984550 -0.406207 -0.000000 0.828954 1.128850 -8.258640 16.377300 -0.000001 -0.000001 7.539470 -6.057400 5.948860 6.456720 -0.000001 -0.000000 -1.587460 -4.173000 -0.969595 12.994200 -0.242716 4.980390 -91.680300 4.074860 -67.567700 5.348090 -0.000007 -0.000001 -61.439700 14.661500 -9.324700 24.328600 0.000019 0.000005 6.959150 16.709700 -23.002300 22.291600 -0.000001 0.000005 13.955800 5.137870 4.231860 12.994500 -0.242716 -4.980390 94.078600 -10.078300 -67.830200 -5.348130 -0.000001 -0.000004 -48.791200 -66.094500 -91.816000 -24.328900 0.000322 -0.000009 -4.149750 -4.134660 -45.168000 -22.291500 -0.000108 -0.000004 20.533300 5.556300 -9.004970 -2.192480 -6.469440 -0.000000 -175.021000 -6.067590 -7.895160 39.081100 -0.000007 -0.000012 -0.128747 0.259501 26.387600 40.985400 -0.000006 -0.000013 -0.443760 10.424200 -64.805800 11.754300 -0.000000 0.000003 -0.000091 -0.000952 -16.614200 -2.192510 6.469440 -0.000001 178.443000 24.166000 176.810000 -39.081100 -0.002282 -0.040193 -0.036021 0.083593 25.198300 -40.985400 0.000008 0.000006 5.464350 7.423020 -68.520400 -11.754300 -0.000006 -0.000006 -0.004950 -0.060984 -19.054300
0.000000 0.000000 0.000000 0.000000 0.000000 -0.000000 -2.604420 91.760100 -2.182740 89.377400 8.822460 4.097770 15.735700 0.000005 -0.000001 95.581400 85.707200 -99.576100 8.984550 -0.406207 -0.000000 0.829155 1.076150 -7.991250 16.377300 -0.000001 -0.000001 7.251900 -5.959720 5.846830 6.456720 -0.000001 -0.000000 -1.557310 -4.020680 -1.035750 12.994200 -0.242716 4.980390 -91.734400 4.197800 -67.527000 5.348090 -0.000007 -0.000001 -61.344900 15.415400 -9.707120 24.328600 0.000019 0.000005 6.884740 16.806200 -22.665200 22.291600 -0.000001 0.000005 13.935000 5.135780 4.281250 12.994500 -0.242716 -4.980390 93.859600 -9.614940 -68.005400 -5.348130 -0.000001 -0.000004 -47.796800 -65.171000 -88.904300 -24.328900 0.000322 -0.000009 -5.037190 -4.352760 -49.258900 -22.291500 -0.000108 -0.000004 20.160000 5.544370 -8.442610 -2.192480 -6.469440 -0.000000 -175.148000 -6.259380 -7.853770 39.081100 -0.000007 -0.000012 -0.127291 0.256273 26.413800 40.985400 -0.000006 -0.000013 -0.389762 10.017200 -64.880500 11.754300 -0.000000 0.000003 -0.000089 -0.000934 -16.613500 -2.192510 6.469440 -0.000001 178.337000 23.793100 176.716000 -39.081100 -0.002282 -0.040193 -0.041662 0.095556 25.204400 -40.985400 0.000008 0.000006 5.235440 7.681740 -68.415800 -11.754300 -0.000006 -0.000006 -0.004982 -0.061288 -19.066700
0.000000 0.000000 0.000000 0.000000 0.000000 -0.000000 -2.400190 91.770200 -2.210430 89.380300 8.149250 4.101020 15.735700 0.000005 -0.000001 95.061000 85.698200 -98.929200 8.984550 -0.406207 -0.000000 0.849365 0.991802 -7.737870 16.377300 -0.000001 -0.000001 6.925450 -5.820690 5.660490 6.456720 -0.000001 -0.000000 -1.584510 -3.837970 -0.994308 12.994200 -0.242716 4.980390 -91.781000 4.299760 -67.475200 5.348090 -0.000007 -0.000001 -61.294400 16.496400 -10.044300 24.328600 0.000019 0.000005 6.747500 17.048400 -21.976700 22.291600 -0.000001 0.000005 13.971900 5.132950 4.348040 12.994500 -0.242716 -4.980390 93.522300 -8.927130 -68.363500 -5.348130 -0.000001 -0.000004 -45.918400 -63.737800 -84.108400 -24.328900 0.000322 -0.000009 -6.109590 -4.246450 -55.317400 -22.291500 -0.000108 -0.000004 20.168900 5.531920 -7.882110 -2.192480 -6.469440 -0.000000 -175.273000 -6.587720 -7.739720 39.081100 -0.000007 -0.000012 -0.126298 0.254286 26.412700 40.985400 -0.000006 -0.000013 -0.317061 9.646090 -64.956600 11.754300 -0.000000 0.000003 -0.000087 -0.000917 -16.612800 -2.192510 6.469440 -0.000001 178.211000 23.392700 176.655000 -39.081100 -0.002282 -0.040193 -0.042843 0.098037 25.210600 -40.985400 0.000008 0.000006 5.143830 7.986900 -68.330100 -11.754300 -0.000006 -0.000006 -0.004880 -0.060299 -19.026400
